{"glyphs":{"0":{"ha":760,"x_min":0,"x_max":0,"o":"m 44 481 b 386 -26 44 135 154 -26 b 728 481 618 -26 728 135 b 386 986 728 826 618 986 b 44 481 154 986 44 826 z m 244 481 b 386 831 244 736 275 831 b 528 481 497 831 528 736 b 386 129 528 226 497 129 b 244 481 275 129 244 226 z "},"1":{"ha":451,"x_min":0,"x_max":0,"o":"m 42 910 l 42 785 l 190 785 l 190 0 l 385 0 l 385 982 z "},"2":{"ha":749,"x_min":0,"x_max":0,"o":"m 39 0 l 710 0 l 710 172 l 282 172 b 503 354 306 218 372 261 b 708 675 600 421 708 501 b 369 986 708 874 558 986 b 47 638 282 986 47 960 l 236 638 b 378 822 236 710 240 822 b 514 682 471 822 514 749 b 265 392 514 569 443 521 b 39 192 181 329 72 244 z "},"3":{"ha":761,"x_min":0,"x_max":0,"o":"m 296 432 b 517 292 386 432 517 426 b 371 129 517 182 449 129 b 226 301 240 129 226 249 l 228 303 l 38 303 b 381 -26 38 -6 288 -26 b 717 292 581 -26 717 107 b 568 521 717 460 603 510 l 568 524 b 686 711 624 550 686 611 b 381 986 686 918 513 986 b 54 669 158 986 54 854 l 235 669 b 368 831 235 704 235 831 b 492 704 475 831 492 742 b 326 571 492 576 386 571 l 296 571 z "},"4":{"ha":774,"x_min":0,"x_max":0,"o":"m 246 838 l 38 838 l 38 386 l 38 218 l 426 218 l 426 0 l 621 0 l 621 218 l 732 218 l 732 386 l 621 386 l 621 986 l 428 986 l 428 376 l 246 376 z "},"5":{"ha":757,"x_min":0,"x_max":0,"o":"m 251 806 l 678 806 l 678 969 l 68 969 l 68 428 l 242 419 b 372 490 278 489 346 490 b 517 314 475 490 517 401 b 369 129 517 208 464 129 b 232 264 281 129 242 181 l 38 264 b 358 -26 49 65 203 -26 b 717 328 649 -26 717 193 b 418 646 717 554 551 646 b 251 592 322 646 279 618 z "},"6":{"ha":757,"x_min":0,"x_max":0,"o":"m 703 736 b 611 922 685 836 664 869 b 410 986 560 971 451 986 b 43 469 69 986 43 657 b 400 -26 43 224 101 -26 b 722 333 590 -26 722 117 b 421 638 722 481 626 638 b 236 556 311 638 263 593 l 233 558 b 396 831 240 686 268 831 b 510 736 468 831 504 792 z m 528 317 b 392 129 528 183 464 129 b 238 313 297 129 238 206 b 386 482 238 436 314 482 b 528 317 446 482 528 442 z "},"7":{"ha":761,"x_min":0,"x_max":0,"o":"m 733 969 l 35 969 l 35 797 l 494 797 b 143 0 450 690 292 363 l 374 0 b 733 819 518 382 678 699 z "},"8":{"ha":769,"x_min":0,"x_max":0,"o":"m 388 586 b 261 708 304 586 261 650 b 394 831 261 781 306 831 b 508 708 457 831 508 786 b 388 586 508 638 465 586 z m 728 293 b 581 531 728 421 675 482 b 694 729 660 574 694 644 b 382 986 694 867 586 986 b 75 717 210 986 75 883 b 194 524 75 622 117 563 b 44 274 44 454 44 322 b 386 -26 44 139 131 -26 b 728 293 647 -26 728 168 z m 528 285 b 388 129 528 217 489 129 b 244 286 299 129 244 192 b 383 439 244 392 313 439 b 528 285 490 439 528 354 z "},"9":{"ha":786,"x_min":0,"x_max":0,"o":"m 236 660 b 376 826 236 800 326 826 b 525 644 476 826 525 757 b 382 479 525 528 450 479 b 236 660 308 479 236 511 z m 61 228 b 367 -26 76 71 200 -26 b 725 479 544 -26 725 96 b 378 986 725 619 719 986 b 42 632 185 986 42 872 b 340 324 42 467 151 324 b 528 407 407 324 483 340 l 531 404 b 368 129 531 197 446 129 b 254 226 308 129 265 158 l 254 228 z "},"A":{"ha":1121,"x_min":0,"x_max":0,"o":"m 200 0 l 304 219 l 806 219 l 903 0 l 1114 0 l 671 990 l 451 990 l 1 0 z m 565 804 l 726 421 l 397 421 l 564 804 z "},"B":{"ha":978,"x_min":0,"x_max":0,"o":"m 314 442 l 551 442 b 708 300 646 442 708 401 b 547 169 708 197 632 169 l 314 169 z m 96 0 l 576 0 b 926 288 756 0 926 86 b 744 539 926 411 867 504 b 879 746 833 582 879 646 b 563 992 879 931 751 992 l 96 992 z m 314 822 l 518 822 b 668 708 596 822 668 801 b 535 590 668 625 613 590 l 314 590 z "},"C":{"ha":1029,"x_min":0,"x_max":0,"o":"m 990 265 b 804 360 901 306 899 311 b 546 206 754 265 657 206 b 251 500 383 206 251 338 b 546 794 251 661 383 794 b 796 651 653 794 747 736 b 982 746 890 697 897 701 b 546 1003 897 897 736 1003 b 43 500 268 1003 43 775 b 546 -3 43 222 268 -3 b 990 265 742 -3 906 106 z "},"D":{"ha":1029,"x_min":0,"x_max":0,"o":"m 96 0 l 524 0 b 974 501 826 0 974 214 b 524 992 974 829 781 992 l 96 992 z m 314 808 l 469 808 b 756 481 685 808 756 681 b 508 183 756 261 635 183 l 314 183 z "},"E":{"ha":900,"x_min":0,"x_max":0,"o":"m 735 396 l 735 589 l 282 589 l 282 813 l 794 813 l 794 996 l 71 996 l 71 1 l 842 1 l 842 185 l 282 185 l 282 396 z "},"F":{"ha":824,"x_min":0,"x_max":0,"o":"m 282 396 l 735 396 l 735 589 l 282 589 l 282 813 l 794 813 l 794 996 l 71 996 l 71 0 l 282 0 l 282 185 z "},"G":{"ha":1054,"x_min":0,"x_max":0,"o":"m 1035 529 b 528 531 864 529 668 531 l 528 347 b 567 346 528 346 540 346 b 768 347 622 346 724 347 l 790 347 b 528 197 750 253 639 197 b 228 497 361 197 228 329 b 528 797 228 664 361 797 b 785 651 639 797 733 740 b 976 749 882 700 889 704 b 528 1010 888 903 719 1010 b 15 497 246 1010 15 779 b 528 -17 15 214 246 -17 b 978 250 721 -17 893 90 b 1035 529 1029 317 1035 500 z "},"H":{"ha":1029,"x_min":0,"x_max":0,"o":"m 749 3 l 963 3 l 963 994 l 749 994 l 749 638 l 289 638 l 289 997 l 76 997 l 76 3 l 289 3 l 289 425 l 749 425 z "},"I":{"ha":410,"x_min":0,"x_max":0,"o":"m 96 0 l 314 0 l 314 992 l 96 992 z "},"J":{"ha":772,"x_min":0,"x_max":0,"o":"m 676 992 l 458 992 l 458 322 b 343 160 458 251 458 160 b 221 283 242 160 221 210 l 19 250 b 68 107 19 222 35 151 b 346 -24 129 17 235 -24 b 676 313 642 -24 676 185 z "},"K":{"ha":1003,"x_min":0,"x_max":0,"o":"m 567 431 l 940 993 l 669 993 l 282 431 l 282 993 l 60 993 l 60 0 l 282 0 l 282 99 l 411 278 l 669 0 l 969 0 z "},"L":{"ha":824,"x_min":0,"x_max":0,"o":"m 797 7 l 797 190 l 289 190 l 289 996 l 75 996 l 75 7 z "},"M":{"ha":1260,"x_min":0,"x_max":0,"o":"m 119 0 l 326 0 l 326 694 l 329 694 l 549 250 l 717 250 l 938 701 l 940 701 l 940 0 l 1144 0 l 1144 992 l 857 992 l 632 554 l 403 992 l 119 992 z "},"N":{"ha":1029,"x_min":0,"x_max":0,"o":"m 769 -1 l 954 -1 l 954 994 l 769 994 l 769 375 l 326 994 l 76 994 l 76 -1 l 267 -1 l 267 685 z "},"O":{"ha":1081,"x_min":0,"x_max":0,"o":"m 1051 500 b 538 1014 1051 785 819 1014 b 25 500 254 1014 25 785 b 538 -12 25 217 254 -12 b 1051 500 819 -12 1051 217 z m 538 804 b 838 500 703 804 838 665 b 538 197 838 335 703 197 b 235 500 372 197 235 335 b 538 804 235 665 372 804 z "},"P":{"ha":926,"x_min":0,"x_max":0,"o":"m 96 0 l 314 0 l 314 356 l 543 356 b 886 674 792 356 886 513 b 543 992 886 835 792 992 l 96 992 z m 314 822 l 483 822 b 675 674 583 822 675 800 b 483 525 675 547 583 525 l 314 525 z "},"Q":{"ha":1081,"x_min":0,"x_max":0,"o":"m 1039 228 l 932 228 b 1040 504 1004 304 1040 382 b 533 1011 1040 786 815 1011 b 29 504 256 1011 29 786 b 533 0 29 226 256 0 b 674 21 582 0 629 7 l 1040 21 z m 533 800 b 829 504 699 800 829 669 b 533 211 829 342 699 211 b 236 504 371 211 236 342 b 533 800 236 669 371 800 z "},"R":{"ha":1003,"x_min":0,"x_max":0,"o":"m 653 367 b 889 674 818 403 889 539 b 543 992 889 835 793 992 l 96 992 l 96 -1 l 315 -1 l 315 356 l 422 356 l 672 -1 l 939 -1 l 661 367 z m 485 822 b 675 674 589 822 675 803 b 485 524 675 547 589 524 l 315 524 l 315 822 z "},"S":{"ha":901,"x_min":0,"x_max":0,"o":"m 33 329 b 456 -24 33 85 233 -24 b 868 294 726 -24 868 113 b 574 583 868 519 647 565 b 278 733 325 643 278 660 b 428 846 278 817 358 846 b 624 726 496 846 597 842 l 835 696 b 438 1015 835 925 644 1015 b 67 715 258 1015 67 919 b 657 269 67 344 657 481 b 464 146 657 168 540 146 b 244 294 383 146 267 164 z "},"T":{"ha":907,"x_min":0,"x_max":0,"o":"m 347 0 l 565 0 l 565 807 l 878 807 l 878 990 l 32 990 l 32 808 l 347 808 z "},"U":{"ha":1029,"x_min":0,"x_max":0,"o":"m 938 992 l 719 992 l 719 375 b 514 160 719 226 669 160 b 310 375 338 160 310 267 l 310 992 l 92 992 l 92 375 b 514 -24 92 104 246 -24 b 938 375 779 -24 938 107 z "},"V":{"ha":875,"x_min":0,"x_max":0,"o":"m 886 992 l 661 992 l 438 294 l 435 294 l 214 992 l -11 992 l 311 0 l 557 0 z "},"W":{"ha":1311,"x_min":0,"x_max":0,"o":"m 1307 992 l 1093 992 l 947 307 l 928 308 l 758 992 l 554 992 l 382 317 l 363 314 l 222 992 l 4 992 l 267 0 l 488 0 l 653 675 l 656 675 l 824 0 l 1040 0 z "},"X":{"ha":926,"x_min":0,"x_max":0,"o":"m -8 0 l 238 0 l 467 340 l 675 0 l 935 0 l 589 518 l 907 992 l 668 992 l 467 675 l 272 992 l 19 992 l 339 519 z "},"Y":{"ha":926,"x_min":0,"x_max":0,"o":"m 353 0 l 571 0 l 571 381 l 939 992 l 696 992 l 465 600 l 233 992 l -12 992 l 353 386 z "},"Z":{"ha":900,"x_min":0,"x_max":0,"o":"m 32 0 l 868 0 l 868 183 l 322 183 l 854 819 l 854 992 l 74 992 l 74 808 l 564 808 l 32 172 z "},"™":{"ha":1389,"x_min":0,"x_max":0,"o":"m 553 992 l 86 992 l 86 881 l 249 881 l 249 419 l 390 419 l 390 881 l 553 881 z m 626 418 l 731 418 l 731 819 l 872 418 l 969 418 l 1111 825 l 1111 418 l 1219 418 l 1219 992 l 1053 992 l 921 594 l 790 992 l 626 992 z "},"®":{"ha":1111,"x_min":0,"x_max":0,"o":"m 436 568 l 436 758 l 544 758 b 667 665 611 758 667 746 b 544 568 667 582 611 568 z m 651 469 b 801 665 757 496 801 578 b 583 867 801 767 739 867 l 297 867 l 297 235 l 436 235 l 436 461 l 506 461 l 664 235 l 821 235 l 657 469 z m 560 114 b 122 550 317 114 122 310 b 560 988 122 793 317 988 b 996 550 801 988 996 793 b 560 114 996 310 801 114 z m 560 1097 b 13 550 257 1097 13 853 b 560 4 13 249 257 4 b 1106 550 861 4 1106 249 b 560 1097 1106 853 861 1097 z "},"©":{"ha":1111,"x_min":0,"x_max":0,"o":"m 756 456 b 572 346 717 389 651 346 b 372 553 464 346 372 438 b 572 760 372 668 464 760 b 749 657 651 760 711 717 b 882 724 814 693 822 693 b 572 906 822 835 707 906 b 226 553 385 906 226 747 b 572 200 226 358 385 200 b 882 389 713 200 826 278 b 756 456 822 418 822 418 z m 554 110 b 117 553 311 110 117 308 b 554 990 117 796 311 990 b 999 553 797 990 999 796 b 554 110 999 308 797 110 z m 554 1106 b 1 553 250 1106 1 857 b 554 0 1 249 250 0 b 1107 553 858 0 1107 249 b 554 1106 1107 857 858 1106 z "}," ":{"ha":421,"x_min":0,"x_max":0,"o":""},"$":{"ha":1913,"x_min":0,"x_max":0,"o":"m 1632 711 b 1815 806 1713 747 1729 757 b 1257 1133 1708 999 1494 1133 b 947 1051 1144 1133 1042 1103 b 639 1133 857 1103 751 1133 b 83 806 397 1133 194 999 b 267 711 168 757 183 747 b 639 926 340 839 476 926 b 771 906 685 926 728 918 b 622 496 676 793 622 653 b 771 86 622 339 676 197 b 639 65 728 74 685 65 b 269 275 482 65 347 147 b 86 179 185 231 168 224 b 639 -142 197 -14 401 -142 b 947 -60 751 -142 857 -111 b 1257 -142 1042 -111 1144 -142 b 1810 179 1494 -142 1699 -14 b 1625 275 1724 224 1711 231 b 1257 65 1553 147 1414 65 b 1124 86 1213 65 1168 74 b 1276 496 1219 197 1276 339 b 1124 906 1276 653 1219 793 b 1257 926 1168 918 1213 926 b 1632 711 1421 926 1558 838 z m 947 793 b 1069 496 1021 715 1069 613 b 947 197 1069 379 1021 275 b 831 496 874 275 831 379 b 947 793 831 613 874 715 z "},"b":{"ha":965,"x_min":0,"x_max":0,"o":"m 292 442 l 529 442 b 686 300 624 442 686 401 b 525 169 686 197 610 169 l 292 169 z m 74 0 l 554 0 b 904 288 733 0 904 86 b 722 539 904 411 844 504 b 857 746 811 582 857 646 b 540 992 857 931 729 992 l 74 992 z m 292 822 l 496 822 b 646 708 574 822 646 801 b 513 590 646 625 590 590 l 292 590 z "},"c":{"ha":1029,"x_min":0,"x_max":0,"o":"m 990 265 b 804 360 901 306 899 311 b 546 206 754 265 657 206 b 251 500 383 206 251 338 b 546 794 251 661 383 794 b 796 651 653 794 747 736 b 982 746 890 697 897 701 b 546 1003 897 897 736 1003 b 43 500 268 1003 43 775 b 546 -3 43 222 268 -3 b 990 265 742 -3 906 106 z "},"d":{"ha":1038,"x_min":0,"x_max":0,"o":"m 96 0 l 524 0 b 974 501 826 0 974 214 b 524 992 974 829 781 992 l 96 992 z m 314 808 l 469 808 b 756 481 685 808 756 681 b 508 183 756 261 635 183 l 314 183 z "},"e":{"ha":903,"x_min":0,"x_max":0,"o":"m 282 396 l 735 396 l 735 589 l 282 589 l 282 813 l 794 813 l 794 996 l 71 996 l 71 1 l 842 1 l 842 185 l 282 185 z "},"f":{"ha":851,"x_min":0,"x_max":0,"o":"m 282 396 l 735 396 l 735 589 l 282 589 l 282 813 l 794 813 l 794 996 l 71 996 l 71 0 l 282 0 l 282 185 z "},"h":{"ha":1040,"x_min":0,"x_max":0,"o":"m 749 3 l 963 3 l 963 994 l 749 994 l 749 638 l 289 638 l 289 997 l 76 997 l 76 3 l 289 3 l 289 425 l 749 425 z "},"i":{"ha":400,"x_min":0,"x_max":0,"o":"m 96 0 l 314 0 l 314 992 l 96 992 z "},"l":{"ha":860,"x_min":0,"x_max":0,"o":"m 797 7 l 797 190 l 289 190 l 289 996 l 75 996 l 75 7 z "},"o":{"ha":1082,"x_min":0,"x_max":0,"o":"m 1051 500 b 538 1014 1051 785 819 1014 b 25 500 254 1014 25 785 b 538 -12 25 217 254 -12 b 1051 500 819 -12 1051 217 z m 538 804 b 838 500 703 804 838 665 b 538 197 838 335 703 197 b 235 500 372 197 235 335 b 538 804 235 665 372 804 z "},"p":{"ha":926,"x_min":0,"x_max":0,"o":"m 96 0 l 314 0 l 314 356 l 543 356 b 886 674 792 356 886 513 b 543 992 886 835 792 992 l 96 992 z m 314 822 l 483 822 b 675 674 583 822 675 800 b 483 525 675 547 583 525 l 314 525 z "},"t":{"ha":907,"x_min":0,"x_max":0,"o":"m 347 0 l 565 0 l 565 807 l 878 807 l 878 990 l 32 990 l 32 808 l 347 808 z "},"u":{"ha":1026,"x_min":0,"x_max":0,"o":"m 938 992 l 719 992 l 719 375 b 514 160 719 226 669 160 b 310 375 338 160 310 267 l 310 992 l 92 992 l 92 375 b 514 -24 92 104 246 -24 b 938 375 779 -24 938 107 z "},"v":{"ha":874,"x_min":0,"x_max":0,"o":"m 886 992 l 661 992 l 438 294 l 435 294 l 214 992 l -11 992 l 311 0 l 557 0 z "},"w":{"ha":1307,"x_min":0,"x_max":0,"o":"m 1307 992 l 1093 992 l 947 307 l 928 308 l 758 992 l 554 992 l 382 317 l 363 314 l 222 992 l 4 992 l 267 0 l 488 0 l 653 675 l 656 675 l 824 0 l 1040 0 z "},"x":{"ha":929,"x_min":0,"x_max":0,"o":"m -8 0 l 238 0 l 467 340 l 675 0 l 935 0 l 589 518 l 907 992 l 668 992 l 467 675 l 272 992 l 19 992 l 339 519 z "},"y":{"ha":929,"x_min":0,"x_max":0,"o":"m 353 0 l 571 0 l 571 381 l 939 992 l 696 992 l 465 600 l 233 992 l -12 992 l 353 386 z "},"z":{"ha":900,"x_min":0,"x_max":0,"o":"m 32 0 l 868 0 l 868 183 l 322 183 l 854 819 l 854 992 l 74 992 l 74 808 l 564 808 l 32 172 z "},"#":{"ha":1407,"x_min":0,"x_max":0,"o":"m 769 -1 l 954 -1 l 954 994 l 769 994 l 769 375 l 326 994 l 76 994 l 76 -1 l 249 -1 l 249 725 z m 1338 825 b 1172 992 1338 918 1263 992 b 1006 825 1079 992 1006 918 b 1172 660 1006 731 1079 660 b 1338 825 1263 660 1338 731 z m 1172 924 b 1268 825 1226 924 1268 879 b 1172 725 1268 771 1226 725 b 1074 825 1118 725 1074 774 b 1172 924 1074 879 1118 924 z "},"a":{"ha":1121,"x_min":0,"x_max":0,"o":"m 200 0 l 304 219 l 806 219 l 903 0 l 1114 0 l 671 990 l 451 990 l 1 0 z m 565 804 l 726 421 l 397 421 l 564 804 z "},"g":{"ha":1054,"x_min":0,"x_max":0,"o":"m 1035 529 b 528 531 864 529 668 531 l 528 347 b 567 346 528 346 540 346 b 768 347 622 346 724 347 l 790 347 b 528 197 750 253 639 197 b 228 497 361 197 228 329 b 528 797 228 664 361 797 b 785 651 639 797 733 740 b 976 749 882 700 889 704 b 528 1010 888 903 719 1010 b 15 497 246 1010 15 779 b 528 -17 15 214 246 -17 b 978 250 721 -17 893 90 b 1035 529 1029 317 1035 500 z "},"j":{"ha":772,"x_min":0,"x_max":0,"o":"m 676 992 l 458 992 l 458 322 b 343 160 458 251 458 160 b 221 283 242 160 221 210 l 19 250 b 68 107 19 222 35 151 b 346 -24 129 17 235 -24 b 676 313 642 -24 676 185 z "},"k":{"ha":1003,"x_min":0,"x_max":0,"o":"m 567 431 l 940 993 l 669 993 l 282 431 l 282 993 l 60 993 l 60 0 l 282 0 l 282 99 l 411 278 l 669 0 l 969 0 z "},"m":{"ha":1260,"x_min":0,"x_max":0,"o":"m 119 0 l 326 0 l 326 694 l 329 694 l 549 250 l 717 250 l 938 701 l 940 701 l 940 0 l 1144 0 l 1144 992 l 857 992 l 632 554 l 403 992 l 119 992 z "},"n":{"ha":1029,"x_min":0,"x_max":0,"o":"m 769 -1 l 954 -1 l 954 994 l 769 994 l 769 375 l 326 994 l 76 994 l 76 -1 l 267 -1 l 267 685 z "},"q":{"ha":1081,"x_min":0,"x_max":0,"o":"m 1039 228 l 932 228 b 1040 504 1004 304 1040 382 b 533 1011 1040 786 815 1011 b 29 504 256 1011 29 786 b 533 0 29 226 256 0 b 674 21 582 0 629 7 l 1040 21 z m 533 800 b 829 504 699 800 829 669 b 533 211 829 342 699 211 b 236 504 371 211 236 342 b 533 800 236 669 371 800 z "},"r":{"ha":1003,"x_min":0,"x_max":0,"o":"m 653 367 b 889 674 818 403 889 539 b 543 992 889 835 793 992 l 96 992 l 96 -1 l 315 -1 l 315 356 l 422 356 l 672 -1 l 939 -1 l 661 367 z m 485 822 b 675 674 589 822 675 803 b 485 524 675 547 589 524 l 315 524 l 315 822 z "},"s":{"ha":901,"x_min":0,"x_max":0,"o":"m 33 329 b 456 -24 33 85 233 -24 b 868 294 726 -24 868 113 b 574 583 868 519 647 565 b 278 733 325 643 278 660 b 428 846 278 817 358 846 b 624 726 496 846 597 842 l 835 696 b 438 1015 835 925 644 1015 b 67 715 258 1015 67 919 b 657 269 67 344 657 481 b 464 146 657 168 540 146 b 244 294 383 146 267 164 z "}}}
